<svg width="32" height="32" xmlns="http://www.w3.org/2000/svg" fill="#00a">
    <path d="m28.197593,13.087986l-0.720569,0l0,-5.791822c0,-3.193225 -3.879542,-5.791822 -8.646826,-5.791822l-5.76455,0c-4.767283,0 -8.646826,2.598598 -8.646826,5.791822l0,5.791822l-0.720569,0c-1.188939,0 -2.161706,0.65158 -2.161706,1.447956l0,14.479556c0,0.796376 0.972768,1.447956 2.161706,1.447956l24.499339,0c1.188939,0 2.161706,-0.65158 2.161706,-1.447956l0,-14.479556c0,-0.796376 -0.972768,-1.447956 -2.161706,-1.447956zm-18.01422,-5.791822c0,-1.06473 1.2927,-1.930607 2.882275,-1.930607l5.76455,0c1.589575,0 2.882275,0.865877 2.882275,1.930607l0,5.791822l-11.529101,0l0,-5.791822z"/>
</svg>